<svg width="425.40000000000003" height="112.39091600675508" viewBox="0 0 370 97.7542052715077" class="looka-1j8o68f"><defs id="SvgjsDefs1156"><linearGradient id="SvgjsLinearGradient1161"><stop id="SvgjsStop1162" stop-color="#7f00ff" offset="0"></stop><stop id="SvgjsStop1163" stop-color="#e100ff" offset="1"></stop></linearGradient><linearGradient id="SvgjsLinearGradient1164"><stop id="SvgjsStop1165" stop-color="#7f00ff" offset="0"></stop><stop id="SvgjsStop1166" stop-color="#e100ff" offset="1"></stop></linearGradient></defs><g id="SvgjsG1157" featurekey="HdFLvg-0" transform="matrix(0.44559652025359703,0,0,0.44559652025359703,0.04134950733995044,0)" fill="url(#SvgjsLinearGradient1161)"><defs xmlns="http://www.w3.org/2000/svg"></defs><g xmlns="http://www.w3.org/2000/svg"><path class="fil0" d="M7 122c-8,20 -10,46 -2,81 1,-27 4,-54 2,-81z" style="fill: url(#SvgjsLinearGradient1161);"></path><path class="fil0" d="M56 70c-10,5 -19,12 -27,19 3,40 -9,73 -18,110 4,-7 8,-15 12,-22 16,-32 33,-63 33,-107z" style="fill: url(#SvgjsLinearGradient1161);"></path><path class="fil0" d="M114 36c-7,5 -14,9 -21,13 -6,60 -37,89 -68,134 40,-51 80,-74 89,-147z" style="fill: url(#SvgjsLinearGradient1161);"></path><path class="fil0" d="M157 60c-2,-21 -6,-42 -12,-60 -5,88 -40,112 -97,166 44,-34 84,-51 109,-106z" style="fill: url(#SvgjsLinearGradient1161);"></path><path class="fil0" d="M150 150c3,-11 6,-23 7,-36 -39,39 -94,49 -135,85 41,-25 86,-28 128,-49z" style="fill: url(#SvgjsLinearGradient1161);"></path><path class="fil0" d="M105 208c10,-5 18,-13 26,-21 -38,5 -73,5 -110,19 29,-4 55,-1 84,2z" style="fill: url(#SvgjsLinearGradient1161);"></path><path class="fil0" d="M9 213c25,6 46,8 64,5 -12,-5 -53,-10 -64,-5z" style="fill: url(#SvgjsLinearGradient1161);"></path></g></g><g id="SvgjsG1158" featurekey="VomJeJ-0" transform="matrix(3.1941591182140083,0,0,3.1941591182140083,85.14487705891814,8.134839185668785)" fill="url(#SvgjsLinearGradient1164)"><path d="M6.3 15.719999999999999 l-1.58 0 l0 4.28 q-0.64 0.12 -1.6 0.12 q-0.98 0 -1.6 -0.12 l0 -13.56 l0.14 -0.14 q1.74 -0.04 2.89 -0.06 t1.75 -0.02 q1.1 0 2.01 0.3 t1.55 0.9 t0.99 1.49 t0.35 2.05 t-0.36 2.05 t-1 1.49 t-1.55 0.91 t-1.99 0.31 z M4.72 8.66 l0 4.66 q0.56 -0.02 0.89 -0.03 t0.43 -0.01 q0.54 0 0.9 -0.19 t0.58 -0.5 t0.32 -0.73 t0.1 -0.88 q0 -0.44 -0.1 -0.86 t-0.31 -0.74 t-0.55 -0.51 t-0.8 -0.19 l-0.82 0 t-0.64 -0.02 z M16.58 12.32 l0 7.68 q-0.34 0.06 -0.74 0.09 t-0.82 0.03 t-0.83 -0.03 t-0.75 -0.09 l0 -6.62 q0 -1.16 -0.94 -1.16 l-0.3 0 q-0.12 -0.38 -0.12 -1.06 q0 -0.66 0.12 -1.12 q0.52 -0.04 0.96 -0.07 t0.8 -0.03 l0.44 0 q1.02 0 1.6 0.64 t0.58 1.74 z M13.08 6 q0.58 -0.32 1.5 -0.32 q0.94 0 1.46 0.32 q0.24 0.54 0.24 1.16 t-0.24 1.16 q-0.58 0.3 -1.52 0.3 t-1.44 -0.3 q-0.24 -0.54 -0.24 -1.16 t0.24 -1.16 z M24.2 10.02 q0.52 -0.12 1.28 -0.12 t1.48 0.22 l0.08 0.2 l-2.82 4.36 l3.16 4.8 q-1.04 0.7 -2.06 0.7 q-1.1 0 -1.7 -0.94 l-1.3 -1.98 l-1.6 2.74 q-0.38 0.12 -1.31 0.12 t-1.55 -0.24 l-0.1 -0.18 l3.06 -4.78 l-2.84 -4.42 q0.96 -0.68 2.12 -0.68 q0.56 0 0.9 0.23 t0.68 0.75 l1.06 1.64 z M36.08 16.02 l-5.22 0 q0.04 0.9 0.46 1.4 t1.38 0.5 q0.48 0 1.11 -0.14 t1.45 -0.46 q0.66 0.68 0.82 1.84 q-1.6 1.14 -3.92 1.14 q-1.26 0 -2.11 -0.4 t-1.38 -1.12 t-0.75 -1.7 t-0.22 -2.14 q0 -1.12 0.27 -2.07 t0.82 -1.65 t1.4 -1.1 t1.99 -0.4 q0.96 0 1.73 0.32 t1.31 0.88 t0.83 1.34 t0.29 1.7 q0 1.22 -0.26 2.06 z M30.840000000000003 13.86 l2.64 0 l0 -0.22 q0 -0.74 -0.33 -1.22 t-0.99 -0.48 q-0.64 0 -0.95 0.45 t-0.37 1.47 z M42.14 17.72 l0.54 0 q0.24 0.66 0.24 1.32 t-0.06 0.86 q-1.2 0.2 -2.14 0.2 q-1.36 0 -1.93 -0.67 t-0.57 -2.11 l0 -11.9 l0.12 -0.14 l1.22 0 q0.94 0 1.32 0.42 t0.38 1.46 l0 9.62 q0 0.94 0.88 0.94 z M49.64 17.32 l2.62 -10.98 q0.48 -0.12 1.24 -0.12 q1.04 0 1.64 0.22 l0.12 0.16 l-3.74 13.4 q-1.14 0.12 -2.29 0.12 t-1.66 -0.29 t-0.77 -1.15 l-3.32 -12.06 q1.08 -0.46 1.78 -0.46 q0.84 0 1.24 0.38 t0.62 1.2 l1.54 5.7 q0.36 1.34 0.76 3.64 q0.04 0.24 0.22 0.24 z M64.46000000000001 18.56 q-0.1 0.42 -0.38 0.9 t-0.58 0.7 q-1.4 -0.04 -2.16 -1.06 q-1.3 1.2 -2.82 1.2 q-0.78 0 -1.36 -0.25 t-0.98 -0.67 t-0.6 -0.97 t-0.2 -1.15 q0 -0.86 0.31 -1.51 t0.85 -1.08 t1.26 -0.65 t1.54 -0.22 q0.46 0 0.81 0.01 t0.61 0.03 l0 -0.38 q0 -1.26 -1.3 -1.26 q-0.84 0 -2.94 0.64 q-0.6 -0.7 -0.76 -2.18 q0.48 -0.18 1.07 -0.34 t1.21 -0.28 t1.22 -0.19 t1.08 -0.07 q0.7 0 1.35 0.2 t1.14 0.61 t0.78 1.06 t0.29 1.55 l0 4.06 q0 0.92 0.56 1.3 z M58.42 17.06 q0 0.94 1.08 0.94 q0.56 0 1.26 -0.58 l0 -1.6 q-0.4 -0.02 -0.67 -0.03 t-0.41 -0.01 q-1.26 0 -1.26 1.28 z M66.18 16.62 l0 -4.1 q0 -1.3 -0.48 -2 q0.74 -0.66 1.8 -0.66 t1.44 0.48 t0.38 1.46 l0 4.24 q0 0.7 0.16 1.02 t0.84 0.32 q0.66 0 1.34 -0.68 l0 -6.68 q0.66 -0.12 1.54 -0.12 t1.58 0.12 l0 7.12 q0 1.08 0.56 1.46 q-0.1 0.4 -0.38 0.87 t-0.58 0.69 q-1.64 -0.06 -2.36 -1.4 q-1.58 1.42 -2.98 1.42 t-2.13 -0.97 t-0.73 -2.59 z M81.12 17.72 l0.54 0 q0.24 0.66 0.24 1.32 t-0.06 0.86 q-1.2 0.2 -2.14 0.2 q-1.36 0 -1.93 -0.67 t-0.57 -2.11 l0 -11.9 l0.12 -0.14 l1.22 0 q0.94 0 1.32 0.42 t0.38 1.46 l0 9.62 q0 0.94 0.88 0.94 z M89.06000000000002 10 q0.12 0.56 0.12 1.12 t-0.12 1.1 l-2.38 -0.04 l0 4.6 q0 0.94 0.88 0.94 l1.12 0 q0.26 0.72 0.26 1.32 t-0.08 0.86 q-1.48 0.2 -2.72 0.2 q-2.52 0 -2.52 -2.78 l0 -5.12 l-1.56 0.02 q-0.14 -0.5 -0.14 -1.09 t0.14 -1.13 l1.56 0.04 l0 -1.16 q0 -1.02 0.39 -1.45 t1.31 -0.43 l1.22 0 l0.14 0.14 l0 2.9 z"></path></g></svg>